{
  "accessors": [
    {
      "bufferView": 2,
      "componentType": 5126,
      "count": 65532,
      "max": [
        28.912723541259766,
        18.415693283081055,
        10.582984924316406
      ],
      "min": [
        -18.087352752685547,
        -5.774158000946045,
        -213.71115112304688
      ],
      "type": "VEC3"
    },
    {
      "bufferView": 2,
      "byteOffset": 786384,
      "componentType": 5126,
      "count": 65532,
      "max": [
        1.0,
        1.0,
        1.0
      ],
      "min": [
        -1.0,
        -1.0,
        -1.0
      ],
      "type": "VEC3"
    },
    {
      "bufferView": 3,
      "componentType": 5126,
      "count": 65532,
      "max": [
        1.0,
        1.0,
        1.0,
        1.0
      ],
      "min": [
        -1.0,
        -1.0,
        -1.0,
        1.0
      ],
      "type": "VEC4"
    },
    {
      "bufferView": 1,
      "componentType": 5126,
      "count": 65532,
      "max": [
        0.9990000128746033,
        0.9968889951705933
      ],
      "min": [
        0.0010000000474974513,
        0.0010000000474974513
      ],
      "type": "VEC2"
    },
    {
      "bufferView": 0,
      "componentType": 5125,
      "count": 370869,
      "type": "SCALAR"
    },
    {
      "bufferView": 2,
      "byteOffset": 1572768,
      "componentType": 5126,
      "count": 18747,
      "max": [
        28.912662506103516,
        18.415693283081055,
        27.034164428710938
      ],
      "min": [
        -18.087352752685547,
        -5.561726093292236,
        -186.62637329101563
      ],
      "type": "VEC3"
    },
    {
      "bufferView": 2,
      "byteOffset": 1797732,
      "componentType": 5126,
      "count": 18747,
      "max": [
        1.0,
        0.9999949932098389,
        1.0
      ],
      "min": [
        -1.0,
        -0.9999949932098389,
        -1.0
      ],
      "type": "VEC3"
    },
    {
      "bufferView": 3,
      "byteOffset": 1048512,
      "componentType": 5126,
      "count": 18747,
      "max": [
        1.0,
        1.0,
        1.0,
        1.0
      ],
      "min": [
        -1.0,
        -1.0,
        -1.0,
        1.0
      ],
      "type": "VEC4"
    },
    {
      "bufferView": 1,
      "byteOffset": 524256,
      "componentType": 5126,
      "count": 18747,
      "max": [
        0.9985589981079102,
        0.9936050176620483
      ],
      "min": [
        0.0010000000474974513,
        0.0010000000474974513
      ],
      "type": "VEC2"
    },
    {
      "bufferView": 0,
      "byteOffset": 1483476,
      "componentType": 5125,
      "count": 95523,
      "type": "SCALAR"
    },
    {
      "bufferView": 2,
      "byteOffset": 2022696,
      "componentType": 5126,
      "count": 49562,
      "max": [
        -16.516496658325195,
        76.15144348144531,
        3.4617769718170166
      ],
      "min": [
        -36.256893157958984,
        -3.749983072280884,
        -189.46839904785156
      ],
      "type": "VEC3"
    },
    {
      "bufferView": 2,
      "byteOffset": 2617440,
      "componentType": 5126,
      "count": 49562,
      "max": [
        1.0,
        1.0,
        1.0
      ],
      "min": [
        -1.0,
        -1.0,
        -1.0
      ],
      "type": "VEC3"
    },
    {
      "bufferView": 3,
      "byteOffset": 1348464,
      "componentType": 5126,
      "count": 49562,
      "max": [
        1.0,
        1.0,
        1.0,
        1.0
      ],
      "min": [
        -1.0,
        -1.0,
        -1.0,
        1.0
      ],
      "type": "VEC4"
    },
    {
      "bufferView": 1,
      "byteOffset": 674232,
      "componentType": 5126,
      "count": 49562,
      "max": [
        0.9990000128746033,
        0.9976599812507629
      ],
      "min": [
        0.0010000000474974513,
        0.0011070000473409891
      ],
      "type": "VEC2"
    },
    {
      "bufferView": 0,
      "byteOffset": 1865568,
      "componentType": 5125,
      "count": 269856,
      "type": "SCALAR"
    },
    {
      "bufferView": 2,
      "byteOffset": 3212184,
      "componentType": 5126,
      "count": 9922,
      "max": [
        21.213790893554688,
        39.506465911865234,
        -197.8761749267578
      ],
      "min": [
        -29.08528709411621,
        -27.50838279724121,
        -236.702392578125
      ],
      "type": "VEC3"
    },
    {
      "bufferView": 2,
      "byteOffset": 3331248,
      "componentType": 5126,
      "count": 9922,
      "max": [
        1.0,
        1.0,
        1.0
      ],
      "min": [
        -1.0,
        -1.0,
        -1.0
      ],
      "type": "VEC3"
    },
    {
      "bufferView": 3,
      "byteOffset": 2141456,
      "componentType": 5126,
      "count": 9922,
      "max": [
        1.0,
        1.0,
        1.0,
        -1.0
      ],
      "min": [
        -1.0,
        -1.0,
        -1.0,
        -1.0
      ],
      "type": "VEC4"
    },
    {
      "bufferView": 1,
      "byteOffset": 1070728,
      "componentType": 5126,
      "count": 9922,
      "max": [
        0.9958590269088745,
        0.9990000128746033
      ],
      "min": [
        0.007579000201076269,
        0.0010000000474974513
      ],
      "type": "VEC2"
    },
    {
      "bufferView": 0,
      "byteOffset": 2944992,
      "componentType": 5125,
      "count": 46398,
      "type": "SCALAR"
    },
    {
      "bufferView": 2,
      "byteOffset": 3450312,
      "componentType": 5126,
      "count": 6907,
      "max": [
        21.182580947875977,
        39.49956512451172,
        48.944671630859375
      ],
      "min": [
        -29.085241317749023,
        -27.508371353149414,
        10.118423461914063
      ],
      "type": "VEC3"
    },
    {
      "bufferView": 2,
      "byteOffset": 3533196,
      "componentType": 5126,
      "count": 6907,
      "max": [
        1.0,
        1.0,
        1.0
      ],
      "min": [
        -1.0,
        -1.0,
        -1.0
      ],
      "type": "VEC3"
    },
    {
      "bufferView": 3,
      "byteOffset": 2300208,
      "componentType": 5126,
      "count": 6907,
      "max": [
        1.0,
        1.0,
        1.0,
        1.0
      ],
      "min": [
        -1.0,
        -1.0,
        -1.0,
        1.0
      ],
      "type": "VEC4"
    },
    {
      "bufferView": 1,
      "byteOffset": 1150104,
      "componentType": 5126,
      "count": 6907,
      "max": [
        0.9995570182800293,
        0.9995419979095459
      ],
      "min": [
        0.0028230000752955675,
        0.001541999983601272
      ],
      "type": "VEC2"
    },
    {
      "bufferView": 0,
      "byteOffset": 3130584,
      "componentType": 5125,
      "count": 29502,
      "type": "SCALAR"
    }
  ],
  "asset": {
    "extras": {
      "author": "qwerty14t (https://sketchfab.com/qwerty14t)",
      "license": "CC-BY-4.0 (http://creativecommons.org/licenses/by/4.0/)",
      "source": "https://sketchfab.com/3d-models/cinema-chair-c958af2d31244964a75f4b967d315b93",
      "title": "Cinema chair"
    },
    "generator": "Sketchfab-14.64.0",
    "version": "2.0"
  },
  "bufferViews": [
    {
      "buffer": 0,
      "byteLength": 3248592,
      "name": "floatBufferViews",
      "target": 34963
    },
    {
      "buffer": 0,
      "byteLength": 1205360,
      "byteOffset": 3248592,
      "byteStride": 8,
      "name": "floatBufferViews",
      "target": 34962
    },
    {
      "buffer": 0,
      "byteLength": 3616080,
      "byteOffset": 4453952,
      "byteStride": 12,
      "name": "floatBufferViews",
      "target": 34962
    },
    {
      "buffer": 0,
      "byteLength": 2410720,
      "byteOffset": 8070032,
      "byteStride": 16,
      "name": "floatBufferViews",
      "target": 34962
    }
  ],
  "buffers": [
    {
      "byteLength": 10480752,
      "uri": "scene.bin"
    }
  ],
  "images": [
    {
      "uri": "textures/1001_baseColor.jpeg"
    },
    {
      "uri": "textures/1001_metallicRoughness.png"
    },
    {
      "uri": "textures/1001_emissive.jpeg"
    },
    {
      "uri": "textures/1001_normal.png"
    },
    {
      "uri": "textures/1011_baseColor.jpeg"
    },
    {
      "uri": "textures/1011_metallicRoughness.png"
    },
    {
      "uri": "textures/1011_emissive.jpeg"
    },
    {
      "uri": "textures/1011_normal.png"
    },
    {
      "uri": "textures/1002_baseColor.jpeg"
    },
    {
      "uri": "textures/1002_metallicRoughness.png"
    },
    {
      "uri": "textures/1002_emissive.jpeg"
    },
    {
      "uri": "textures/1002_normal.png"
    },
    {
      "uri": "textures/1012_baseColor.jpeg"
    },
    {
      "uri": "textures/1012_metallicRoughness.png"
    },
    {
      "uri": "textures/1012_emissive.jpeg"
    },
    {
      "uri": "textures/1012_normal.png"
    }
  ],
  "materials": [
    {
      "doubleSided": true,
      "emissiveFactor": [
        1.0,
        1.0,
        1.0
      ],
      "emissiveTexture": {
        "index": 2
      },
      "name": "1001",
      "normalTexture": {
        "index": 3
      },
      "occlusionTexture": {
        "index": 1
      },
      "pbrMetallicRoughness": {
        "baseColorTexture": {
          "index": 0
        },
        "metallicRoughnessTexture": {
          "index": 1
        }
      }
    },
    {
      "doubleSided": true,
      "emissiveFactor": [
        1.0,
        1.0,
        1.0
      ],
      "emissiveTexture": {
        "index": 6
      },
      "name": "1011",
      "normalTexture": {
        "index": 7
      },
      "occlusionTexture": {
        "index": 5
      },
      "pbrMetallicRoughness": {
        "baseColorTexture": {
          "index": 4
        },
        "metallicRoughnessTexture": {
          "index": 5
        }
      }
    },
    {
      "doubleSided": true,
      "emissiveFactor": [
        1.0,
        1.0,
        1.0
      ],
      "emissiveTexture": {
        "index": 10
      },
      "name": "1002",
      "normalTexture": {
        "index": 11
      },
      "occlusionTexture": {
        "index": 9
      },
      "pbrMetallicRoughness": {
        "baseColorTexture": {
          "index": 8
        },
        "metallicRoughnessTexture": {
          "index": 9
        }
      }
    },
    {
      "doubleSided": true,
      "emissiveFactor": [
        1.0,
        1.0,
        1.0
      ],
      "emissiveTexture": {
        "index": 14
      },
      "name": "1012",
      "normalTexture": {
        "index": 15
      },
      "occlusionTexture": {
        "index": 13
      },
      "pbrMetallicRoughness": {
        "baseColorTexture": {
          "index": 12
        },
        "metallicRoughnessTexture": {
          "index": 13
        }
      }
    }
  ],
  "meshes": [
    {
      "name": "defaultMaterial",
      "primitives": [
        {
          "attributes": {
            "NORMAL": 1,
            "POSITION": 0,
            "TANGENT": 2,
            "TEXCOORD_0": 3
          },
          "indices": 4,
          "material": 0,
          "mode": 4
        }
      ]
    },
    {
      "name": "defaultMaterial",
      "primitives": [
        {
          "attributes": {
            "NORMAL": 6,
            "POSITION": 5,
            "TANGENT": 7,
            "TEXCOORD_0": 8
          },
          "indices": 9,
          "material": 0,
          "mode": 4
        }
      ]
    },
    {
      "name": "defaultMaterial",
      "primitives": [
        {
          "attributes": {
            "NORMAL": 11,
            "POSITION": 10,
            "TANGENT": 12,
            "TEXCOORD_0": 13
          },
          "indices": 14,
          "material": 1,
          "mode": 4
        }
      ]
    },
    {
      "name": "defaultMaterial",
      "primitives": [
        {
          "attributes": {
            "NORMAL": 16,
            "POSITION": 15,
            "TANGENT": 17,
            "TEXCOORD_0": 18
          },
          "indices": 19,
          "material": 2,
          "mode": 4
        }
      ]
    },
    {
      "name": "defaultMaterial",
      "primitives": [
        {
          "attributes": {
            "NORMAL": 21,
            "POSITION": 20,
            "TANGENT": 22,
            "TEXCOORD_0": 23
          },
          "indices": 24,
          "material": 3,
          "mode": 4
        }
      ]
    }
  ],
  "nodes": [
    {
      "children": [
        1
      ],
      "matrix": [
        1.0,
        0.0,
        0.0,
        0.0,
        0.0,
        3.828568672208042e-16,
        -1.0,
        0.0,
        0.0,
        1.0,
        3.828568672208042e-16,
        0.0,
        0.0,
        0.0,
        0.0,
        1.0
      ],
      "name": "Sketchfab_model"
    },
    {
      "children": [
        2
      ],
      "matrix": [
        1.0,
        0.0,
        0.0,
        0.0,
        0.0,
        -4.371139006309477e-08,
        0.999999999999999,
        0.0,
        0.0,
        -0.999999999999999,
        -4.371139006309477e-08,
        0.0,
        0.0,
        0.0,
        0.0,
        1.0
      ],
      "name": "Collada visual scene group"
    },
    {
      "children": [
        3,
        4,
        5,
        6,
        7
      ],
      "matrix": [
        0.0,
        0.0,
        1.0,
        0.0,
        0.0,
        1.0,
        0.0,
        0.0,
        -0.221126,
        0.0,
        0.0,
        0.0,
        -20.593273,
        27.508373,
        11.08732,
        1.0
      ],
      "name": "Cylinder005"
    },
    {
      "mesh": 0,
      "name": "defaultMaterial"
    },
    {
      "mesh": 1,
      "name": "defaultMaterial"
    },
    {
      "mesh": 2,
      "name": "defaultMaterial"
    },
    {
      "mesh": 3,
      "name": "defaultMaterial"
    },
    {
      "mesh": 4,
      "name": "defaultMaterial"
    }
  ],
  "samplers": [
    {
      "magFilter": 9729,
      "minFilter": 9987,
      "wrapS": 10497,
      "wrapT": 10497
    }
  ],
  "scene": 0,
  "scenes": [
    {
      "name": "Sketchfab_Scene",
      "nodes": [
        0
      ]
    }
  ],
  "textures": [
    {
      "sampler": 0,
      "source": 0
    },
    {
      "sampler": 0,
      "source": 1
    },
    {
      "sampler": 0,
      "source": 2
    },
    {
      "sampler": 0,
      "source": 3
    },
    {
      "sampler": 0,
      "source": 4
    },
    {
      "sampler": 0,
      "source": 5
    },
    {
      "sampler": 0,
      "source": 6
    },
    {
      "sampler": 0,
      "source": 7
    },
    {
      "sampler": 0,
      "source": 8
    },
    {
      "sampler": 0,
      "source": 9
    },
    {
      "sampler": 0,
      "source": 10
    },
    {
      "sampler": 0,
      "source": 11
    },
    {
      "sampler": 0,
      "source": 12
    },
    {
      "sampler": 0,
      "source": 13
    },
    {
      "sampler": 0,
      "source": 14
    },
    {
      "sampler": 0,
      "source": 15
    }
  ]
}
